<svg width="32" height="32" xmlns="http://www.w3.org/2000/svg" viewBox="0 0 32 32"><defs><linearGradient id="coffeeF" x2="0" y2="1"><stop stop-color="#b08858"/><stop offset=".5" stop-color="#875c34"/><stop offset="1" stop-color="#5e3c1e"/></linearGradient><linearGradient id="coffeeG" x2="0" y2="1"><stop stop-color="#fff" stop-opacity=".55"/><stop offset="1" stop-color="#fff" stop-opacity="0"/></linearGradient><filter id="coffeeS" x="-20%" y="-15%" width="140%" height="145%"><feDropShadow dx="0" dy=".6" stdDeviation=".7" flood-opacity=".32"/></filter></defs><g filter="url(#coffeeS)"><rect x="1" y="1" width="30" height="30" rx="7" fill="url(#coffeeF)" stroke="#472d16" stroke-width="1"/><rect x="2.3" y="2.3" width="27.4" height="27.4" rx="5.8" fill="none" stroke="#fff" stroke-opacity=".45" stroke-width="1"/><path d="M3 9Q3 3 9 3H23Q29 3 29 9V12.5Q16 18 3 12.5Z" fill="url(#coffeeG)"/><g style="filter:drop-shadow(0 .5px .4px rgba(0,0,0,.35))"><path d="M8 12h13v6a6.5 6.5 0 0 1-13 0Z" fill="#fff"/><path d="M21 13h3a2.6 2.6 0 0 1 0 5.2h-3" fill="none" stroke="#fff" stroke-width="2.2"/><g stroke="#fff" stroke-width="1.8" stroke-linecap="round"><path d="M11 5.5v3"/><path d="M14.5 5v3.5"/></g></g></g></svg>
